<svg width="180" height="160" viewBox="0 0 180 160" fill="none" xmlns="http://www.w3.org/2000/svg">
<path fill-rule="evenodd" clip-rule="evenodd" d="M132.774 2.62055C128.382 16.1966 117.716 27.3035 104.046 32.5357C101.456 33.5272 101.449 33.4847 104.418 34.56C112.73 37.5713 120.646 43.6668 126.202 51.336C134.05 62.168 136.931 76.2364 134.067 89.7459C131.686 100.976 124.259 112.288 115.179 118.514C114.472 118.999 113.995 119.483 114.117 119.591C114.24 119.699 115.236 120.46 116.33 121.282C125.206 127.949 131.75 138.274 134.091 149.304C134.608 151.74 135.119 155.86 135.238 158.549L135.302 160L138.885 157.566C161.423 142.247 176.036 117.907 179.102 90.5771C179.661 85.5978 179.51 72.1468 178.846 67.7313C176.208 50.1931 169.997 35.6298 159.357 22.0395C155.966 17.7077 147.781 9.66703 143.346 6.30977C139.565 3.44866 134.389 0 133.874 0C133.735 0 133.24 1.17938 132.774 2.62055Z" fill="url(#paint0_linear_112_361)"/>
<path d="M15.4295 28.3636C22.4174 17.8061 30.8432 9.41537 41.7601 2.14273C43.5295 0.964361 45.1204 0 45.2957 0C45.4713 0 46.0114 1.23993 46.4952 2.7557C47.554 6.07167 50 11.1177 52.0743 14.2659C55.2447 19.078 59.9904 23.9031 64.7849 27.1884C67.4609 29.0223 73.1322 31.9526 75.671 32.813C76.611 33.1316 77.3436 33.4262 77.2978 33.4673C77.2523 33.5084 75.671 34.1639 73.7837 34.9239C67.5368 37.4397 62.7771 40.6513 57.8081 45.7029C53.8857 49.691 51.6084 52.8723 49.1397 57.8121C45.3731 65.3501 43.8709 72.3699 44.1683 81.0433C44.3709 86.949 45.2356 91.4635 47.1399 96.5592C50.2233 104.809 55.9103 112.42 63.1244 117.949C64.1309 118.721 64.9556 119.422 64.9567 119.506C64.9572 119.591 63.9746 120.399 62.7729 121.301C61.5704 122.204 59.3867 124.165 57.919 125.659C49.6552 134.074 44.7237 145.214 44.1232 156.824L43.959 160L41.6947 158.551C32.9154 152.932 23.1018 143.398 16.7245 134.29C7.84764 121.613 2.17939 106.591 0.421844 91.0839C-0.134269 86.1768 -0.142188 74.3189 0.407853 69.4974C2.07171 54.9087 7.25643 40.7112 15.4295 28.3636Z" fill="url(#paint1_linear_112_361)"/>
<path d="M96.7355 72.5044H62.0469V107.167H96.7355V72.5044Z" fill="#0E6B3F"/>
<path d="M107.701 61.5503H73.0127V96.2127H107.701V61.5503Z" fill="#2BB275"/>
<path d="M117.256 52H82.5669V86.6624H117.256V52Z" fill="#45D99C"/>
<defs>
<linearGradient id="paint0_linear_112_361" x1="140.795" y1="0" x2="140.795" y2="160" gradientUnits="userSpaceOnUse">
<stop stop-color="#3FD1D7"/>
<stop offset="1" stop-color="#3CCEF8"/>
</linearGradient>
<linearGradient id="paint1_linear_112_361" x1="38.6499" y1="0" x2="38.6499" y2="160" gradientUnits="userSpaceOnUse">
<stop stop-color="#40D3CD"/>
<stop offset="1" stop-color="#43D7AB"/>
</linearGradient>
</defs>
</svg>
